<?xml version="1.0" ?><svg enable-background="new 0 0 512 512" id="Layer_1" version="1.1" viewBox="0 0 512 512" xml:space="preserve" xmlns="http://www.w3.org/2000/svg" xmlns:xlink="http://www.w3.org/1999/xlink"><g><g><linearGradient gradientUnits="userSpaceOnUse" id="SVGID_1_" x1="-0.0000027" x2="512" y1="256" y2="256"><stop offset="0" style="stop-color:#E24263"/><stop offset="1" style="stop-color:#DD1E47"/></linearGradient><circle cx="256" cy="256" fill="url(#SVGID_1_)" r="256"/><linearGradient gradientUnits="userSpaceOnUse" id="SVGID_2_" x1="42.6666641" x2="469.3333435" y1="256.0005188" y2="256.0005188"><stop offset="0" style="stop-color:#DD1E47"/><stop offset="1" style="stop-color:#E24263"/></linearGradient><path d="M256,469.3338623c-117.6309967,0-213.3333435-95.7023926-213.3333435-213.3333435    c0-117.6314545,95.7023392-213.333313,213.3333435-213.333313c117.6362,0,213.3333435,95.7018661,213.3333435,213.333313    C469.3333435,373.6314697,373.6362,469.3338623,256,469.3338623z" fill="url(#SVGID_2_)"/></g><g><path d="M264,189.5839996c-75.4837952,0-120,74.4149323-120,74.4149323s44.5162048,74.4165344,120,74.4165344    c75.4841919,0,120-74.4165344,120-74.4165344S339.4841919,189.5839996,264,189.5839996z M264,313.4757385    c-27.3248596,0-49.4757996-22.1509399-49.4757996-49.4768066c0-27.3237305,22.1509399-49.4746704,49.4757996-49.4746704    c27.3247375,0,49.4761963,22.1509399,49.4761963,49.4746704C313.4761963,291.3247986,291.3247375,313.4757385,264,313.4757385z" opacity="0.3"/><circle cx="264.0000916" cy="263.9997253" opacity="0.3" r="15.4838667"/></g><g><path d="M256,181.5839996c-75.4837952,0-120,74.4149323-120,74.4149323s44.5162048,74.4165344,120,74.4165344    c75.4841919,0,120-74.4165344,120-74.4165344S331.4841919,181.5839996,256,181.5839996z M256,305.4757385    c-27.3248596,0-49.4757996-22.1509399-49.4757996-49.4768066c0-27.3237305,22.1509399-49.4746704,49.4757996-49.4746704    c27.3247375,0,49.4761963,22.1509399,49.4761963,49.4746704C305.4761963,283.3247986,283.3247375,305.4757385,256,305.4757385z" fill="#FFFFFF"/><circle cx="256.0000916" cy="255.9997406" fill="#FFFFFF" r="15.4838667"/></g></g></svg>